<?xml version="1.0" encoding="utf-8"?>
<!-- Generator: Adobe Illustrator 15.0.0, SVG Export Plug-In . SVG Version: 6.00 Build 0)  -->
<!DOCTYPE svg PUBLIC "-//W3C//DTD SVG 1.1//EN" "http://www.w3.org/Graphics/SVG/1.1/DTD/svg11.dtd">
<svg version="1.1" id="图层_1" xmlns="http://www.w3.org/2000/svg" xmlns:xlink="http://www.w3.org/1999/xlink" x="0px" y="0px"
	 width="500px" height="500px" viewBox="0 0 500 500" enable-background="new 0 0 500 500" xml:space="preserve">
<g id="图层_2">
	<path fill="#DD1C1C" d="M256.267,66.501c107.866-2.61,204.095,99.249,204.095,205.534c0,106.284-85.784,181.164-202.355,179.423
		C141.436,449.719,45.208,387.023,51.3,262.46c1.353-27.672,6.907-52.588,15.897-74.643c-15.007-11.607-24.852-29.74-24.852-49.132
		c0-32.85,27.38-59.492,61.139-59.492c16.072,0,30.695,7.027,41.608,17.932C177.326,77.882,215.595,67.484,256.267,66.501z"/>
	<path fill="#0174FF" d="M276.133,75.883c-97.91-1.088-180.65,84.343-173.674,174.368c6.978,90.027,72.276,143.325,170.757,141.959
		c98.481-1.366,177.349-81.068,176.078-162.527c-0.22-14.046-2.604-27.791-6.895-40.922c16.054-11.517,26.72-30.34,26.72-50.523
		c0-32.851-27.38-59.493-61.14-59.493c-16.902,0-32.205,7.77-43.273,19.65C339.097,84.512,308.962,76.248,276.133,75.883z"/>
	<path fill="#FFFFFF" d="M253.713,116.366c-87.97-0.988-158.401,74.168-150.568,146.387c7.832,72.22,63.375,129.9,151.859,129.533
		c88.484-0.371,155.436-61.56,154.292-136.352C408.152,181.144,341.684,117.354,253.713,116.366z"/>
</g>
<g id="图层_3">
	<path fill="#4AA8FF" d="M345.457,312.238c6.557,0,11.871,5.11,11.871,11.415c0,6.304-5.314,11.415-11.871,11.415
		c-6.554,0-11.87-5.112-11.87-11.415C333.586,317.349,338.902,312.238,345.457,312.238L345.457,312.238z M385.612,251.686
		c-0.309,10.957-4.503,60.291-22.346,60.291c-5.182,0-12.078-6.382-10.874-10.223c8.265-26.335,22.24-50.068-2.831-97.065
		c-2.656-4.979,1.828-13.485,8.917-13.703C376.007,190.45,385.958,239.578,385.612,251.686z"/>
</g>
<g id="图层_1_1_" display="none">
	<g display="inline">
		<g>
			<g>
				<defs>
					<rect id="SVGID_1_" x="18.158" y="21.395" width="430.536" height="426.574"/>
				</defs>
				<clipPath id="SVGID_2_">
					<use xlink:href="#SVGID_1_"  overflow="visible"/>
				</clipPath>
				<g transform="matrix(1 0 0 1 -1.092822e-006 -6.681619e-007)" clip-path="url(#SVGID_2_)">
				</g>
			</g>
		</g>
	</g>
</g>
</svg>
