<?xml version="1.0" encoding="utf-8"?>
<!-- Generator: Adobe Illustrator 18.1.1, SVG Export Plug-In . SVG Version: 6.00 Build 0)  -->
<svg version="1.1" id="图层_1" xmlns="http://www.w3.org/2000/svg" xmlns:xlink="http://www.w3.org/1999/xlink" x="0px" y="0px"
	 viewBox="0 0 510.2 510.2" enable-background="new 0 0 510.2 510.2" xml:space="preserve">
<g>
	<path fill="#FFFFFF" d="M273.3,431.4c-0.5,0-1,0-1.5-0.1c-4.8-0.6-8.6-4.1-9.2-8.5l-21.1-137.7L91.3,265.8
		c-4.8-0.6-8.6-4.1-9.2-8.5c-0.7-4.4,1.9-8.6,6.3-10.4l324.7-132.2c4.1-1.6,8.9-0.9,12.1,2.1c3.2,2.9,4.1,7.3,2.2,11L283.2,425.5
		C281.4,429.1,277.5,431.4,273.3,431.4L273.3,431.4z M131.7,250.9l120.9,15.6c4.8,0.6,8.6,4.1,9.2,8.5l17,110.8l117.4-242.4
		L131.7,250.9L131.7,250.9z M131.7,250.9"/>
</g>
</svg>
