<?xml version="1.0" encoding="utf-8"?>
<!-- Generator: Adobe Illustrator 18.1.1, SVG Export Plug-In . SVG Version: 6.00 Build 0)  -->
<svg version="1.1" id="图层_1" xmlns="http://www.w3.org/2000/svg" xmlns:xlink="http://www.w3.org/1999/xlink" x="0px" y="0px"
	 viewBox="0 0 510.2 510.2" enable-background="new 0 0 510.2 510.2" xml:space="preserve">
<g>
	<path fill="#FFFFFF" d="M420.8,160.6c-3.7-7.3-8.2-15.1-13.4-23.2c-5.2-8.1-10.4-15.6-15.6-22.6L374,90.5l37.9-24.3
		c6.3,5.4,13,12,20,19.7c7.1,7.7,13.4,15.2,18.9,22.6c6.7,8.5,13,17.4,18.9,26.6L420.8,160.6z M496.5,410.2
		c-5.6,11.2-12.4,20.8-20.6,28.9c-7.1,6.9-16,13.2-26.7,18.8c-10.8,5.6-23.8,7.8-39,6.7c-20.4-1.5-39-7.2-55.7-17.1
		c-16.7-9.8-31-22.3-42.9-37.3c-14.1,7.7-29.3,14.7-45.7,20.8c-16.3,6.2-33.8,11.4-52.3,15.6l-10.6-43.4
		c13.4-4.6,27.1-10.5,41.2-17.7c14.1-7.1,28.2-15.5,42.3-25.2c-1.5-5-2.2-10-2.2-15.1c-1.1-6.2-2.1-14.1-3.1-23.7
		c-0.9-9.7-1.8-20.4-2.5-32.1c-0.7-11.8-1.5-24.5-2.2-38.2c-0.7-13.7-1.5-27.5-2.2-41.4h-90.2v58.5c8.2-3.1,15.1-5.7,20.9-7.8
		c5.8-2.1,10.3-4,13.6-5.5c4.1-1.5,7.2-3.1,9.5-4.6l17.8,37.1c-18.6,13.1-39.2,24.7-61.8,34.7v87.4c0,9.3-1.9,17.5-5.6,24.6
		c-3.7,7.1-8.3,13-13.9,17.7c-5.6,4.6-11.7,8-18.4,10.1c-6.7,2.1-12.8,2.6-18.4,1.4c-7.8-1.5-15.9-3.5-24.2-5.8
		c-8.4-2.3-16.2-4.4-23.7-6.4c-8.5-2.3-16.9-4.8-25.1-7.5l15-32.4l3.9,1.7c10,3.5,17.7,4.1,23.1,2c5.4-2.1,9.4-5.1,12-9
		c3-4.2,4.6-10,5-17.4v-40c-11.1,3.9-21.6,7.2-31.5,10.1c-9.8,2.9-18.5,5.3-25.9,7.2c-8.5,2.3-16.3,4.4-23.4,6.4l-10.6-66.6
		c18.2-3.9,34.8-7.2,49.8-10.1c15-2.9,28.9-5.9,41.5-9v-77H21v-38.2h93v-30.1c-14.1,1.2-28.6,1.6-43.4,1.4
		c-14.8-0.2-30.6-1.4-47.3-3.8l0.6-39.4c29,0.8,54.9-1.5,78-6.9c23-5.4,42.7-11.4,59-18c18.9-7.7,35.6-16.8,50.1-27.2l35.6,52.7
		c-4.8,2.7-10.4,5.6-16.7,8.7c-5.2,2.7-11.7,5.6-19.5,8.7c-7.8,3.1-16.5,6.2-26.2,9.3v44.6h88c-0.7-17-1.3-33.1-1.7-48.3
		c-0.4-15.2-0.9-28.7-1.7-40.2c-0.7-13.5-1.3-26.1-1.7-37.6h74.1c0.4,6.6,0.8,14.6,1.4,24c0.6,9.5,1.1,19.7,1.7,30.7
		c0.6,11,1,22.7,1.4,35c0.4,12.4,0.7,24.5,1.1,36.5h138.1v38.2h-137c0.7,11.6,1.3,22.6,1.7,33c0.4,10.4,0.9,19.7,1.7,27.8
		c0.7,5.8,1.3,11.4,1.7,16.8c0.4,5.4,0.9,10.4,1.7,15.1c10.8-11.2,21.3-23.5,31.5-37.1c10.2-13.5,20-28.4,29.2-44.6l58.5,34.7
		c0,0.8-2,4.7-6.1,11.9c-4.1,7.1-10.3,16.2-18.7,27.2c-8.4,11-18.8,23.3-31.5,36.8c-12.6,13.5-27.8,27-45.7,40.5
		c11.5,25.1,29.5,36.9,54,35.3c11.9,0,21.4-2.6,28.7-7.8c7.2-5.2,13.3-10.7,18.1-16.5L496.5,410.2z M496.5,410.2"/>
</g>
</svg>
