<?xml version="1.0" encoding="utf-8"?>
<!-- Generator: Adobe Illustrator 18.1.1, SVG Export Plug-In . SVG Version: 6.00 Build 0)  -->
<svg version="1.1" id="图层_1" xmlns="http://www.w3.org/2000/svg" xmlns:xlink="http://www.w3.org/1999/xlink" x="0px" y="0px"
	 viewBox="0 0 510.2 510.2" enable-background="new 0 0 510.2 510.2" xml:space="preserve">
<g>
	<path fill="#FFFFFF" d="M463.3,266.4c-5.5,5.5-12.7,8.3-20,8.3c-3.2,0-6.5-0.7-9.6-1.8v153.1c0,20.9-16.8,37.9-37.6,37.9h-65.9
		h-9.4h-18.7c-10.4,0-18.8-8.5-18.8-18.9v-9.5v-9.5v-66.3c0-5.2-4.2-9.5-9.4-9.5h-37.6c-5.2,0-9.4,4.3-9.4,9.5v66.3v9.5v9.5
		c0,10.5-8.4,18.9-18.8,18.9h-18.8h-9.4H114c-20.8,0-37.6-17-37.6-37.9V272.4c-10.1,3.7-21.8,1.4-29.8-6.9
		c-10.9-11.2-10.6-29.2,0.6-40.2l38.6-37.9v-83.3c0-10.5,8.4-18.9,18.8-18.9h37.6c10.4,0,18.8,8.5,18.8,18.9v9.5l78.8-77.3
		c11.1-10.8,28.7-10.7,39.7,0.3l183.9,189.5C474.4,237.4,474.4,255.3,463.3,266.4L463.3,266.4z M114,445h65.9h9.4h9.4
		c5.2,0,9.4-4.2,9.4-9.5v-9.5v-75.7c0-10.5,8.4-18.9,18.8-18.9h56.5c10.4,0,18.8,8.5,18.8,18.9v75.7v9.5c0,5.2,4.2,9.5,9.4,9.5h9.4
		h9.4h65.9c10.4,0,18.8-8.5,18.8-18.9V257.7l-155.9-161L95.2,257.6v168.5C95.2,436.5,103.6,445,114,445L114,445z M142.2,113.7
		c0-5.2-4.2-9.5-9.4-9.5H114c-5.2,0-9.4,4.2-9.4,9.5v55.3l37.6-36.9V113.7L142.2,113.7z M450.1,239.7l-184-189.5
		c-2.4-2.4-5.2-2.8-6.7-2.8c-2.5,0-4.8,0.9-6.6,2.7L60.2,239c-3.7,3.6-3.8,9.6-0.2,13.4c2.4,2.5,5.3,2.9,6.7,2.9
		c2.5,0,4.8-1,6.6-2.7l3-3v-3.4h3.4L259.4,70.1l170.8,176.1h3.7v3.8l2.9,3c2.4,2.4,5.2,2.8,6.7,2.8c1.5,0,4.2-0.4,6.7-2.8
		c2.4-2.4,2.8-5.2,2.8-6.7C452.8,244.9,452.5,242.1,450.1,239.7L450.1,239.7z M255.1,161c20.8,0,37.6,17,37.6,37.9
		c0,20.9-16.9,37.9-37.6,37.9c-20.8,0-37.6-17-37.6-37.9C217.5,178,234.3,161,255.1,161L255.1,161z M255.1,217.8
		c10.4,0,18.8-8.5,18.8-18.9s-8.4-18.9-18.8-18.9c-10.4,0-18.8,8.5-18.8,18.9S244.7,217.8,255.1,217.8L255.1,217.8z M255.1,217.8"/>
</g>
</svg>
