<?xml version="1.0" encoding="utf-8"?>
<!-- Generator: Adobe Illustrator 19.0.1, SVG Export Plug-In . SVG Version: 6.00 Build 0)  -->
<svg version="1.1" id="图层_1" xmlns="http://www.w3.org/2000/svg" xmlns:xlink="http://www.w3.org/1999/xlink" x="0px" y="0px"
	 viewBox="-47 48.3 500 500" style="enable-background:new -47 48.3 500 500;" xml:space="preserve">
<style type="text/css">
	.st0{fill:url(#SVGID_1_);}
	.st1{fill:#FFFFFF;stroke:#FFFFFF;stroke-width:3;stroke-linecap:round;stroke-linejoin:round;stroke-miterlimit:22.9256;}
	.st2{fill:#FFFFFF;}
	.st3{fill:#FF1414;}
	.st4{display:none;}
	.st5{display:inline;}
	.st6{clip-path:url(#SVGID_3_);}
</style>
<g id="图层_2">
	
		<linearGradient id="SVGID_1_" gradientUnits="userSpaceOnUse" x1="203.0001" y1="514.909" x2="202.9999" y2="84.211" gradientTransform="matrix(1 0 0 -1 0 597.84)">
		<stop  offset="0" style="stop-color:#1AD6FD"/>
		<stop  offset="1" style="stop-color:#1D63F0"/>
	</linearGradient>
	<path class="st0" d="M203,513.6c118,0,214.3-96.7,214.3-215.3S321,82.9,203,82.9S-11.3,179.7-11.3,298.3
		C-11.3,416.9,85,513.6,203,513.6z"/>
	<path class="st1" d="M202.2,138.9v-38.7 M174.2,141.5l-6.7-38.1 M147.2,148.9l-13.2-36.4 M121.8,160.9l-19.3-33.5 M98.9,177.1
		L74,147.4 M79.2,197l-29.6-24.9 M63.2,220.1l-33.5-19.3 M51.5,245.6l-36.4-13.2 M44.4,272.7L6.3,266 M42.1,300.7H3.4 M44.7,328.6
		l-38.1,6.7 M52.1,355.7l-36.4,13.2 M64.1,381l-33.5,19.3 M80.3,403.9l-29.6,24.9 M100.2,423.7l-24.9,29.6 M123.3,439.6l-19.3,33.5
		 M148.8,451.3l-13.2,36.4 M175.9,458.5l-6.7,38.1 M203.9,460.8v38.7 M231.8,458.2l6.7,38.1 M258.9,450.8l13.2,36.4 M284.2,438.8
		l19.3,33.5 M307.1,422.5l24.9,29.6 M326.9,402.6l29.6,24.9 M342.8,379.5l33.5,19.3 M354.6,354l36.4,13.2 M361.7,326.9l38.1,6.7
		 M364,298.9h38.7 M361.4,271l38.1-6.7 M354,243.9l36.4-13.2 M342,218.6l33.5-19.3 M325.8,195.7l29.6-24.9 M305.8,175.9l24.9-29.6
		 M282.7,160l19.3-33.5 M257.2,148.3l13.2-36.4 M230.1,141.1l6.7-38.1"/>
	<path class="st1" d="M218.6,102l-0.7,17.1 M184.2,102.4l2.2,17 M150.3,108.8l5.2,16.3 M118.1,120.9l7.9,15.2 M88.4,138.5l10.4,13.6
		 M62.3,161l12.6,11.6 M40.5,187.6l14.4,9.2 M23.6,217.7l15.8,6.6 M12.2,250.2l16.7,3.7 M6.6,284.2l17.1,0.7 M7,318.6l17-2.2
		 M13.4,352.5l16.3-5.2 M25.6,384.7l15.2-7.9 M43.2,414.4l13.6-10.4 M65.7,440.5l11.6-12.6 M92.3,462.3l9.2-14.4 M122.4,479.2
		l6.6-15.8 M154.9,490.6l3.7-16.7 M188.9,496.2l0.7-17.1 M223.3,495.8l-2.2-17 M257.2,489.4l-5.2-16.3 M289.4,477.2l-7.9-15.2
		 M319.1,459.6L308.6,446 M345.2,437.2l-12.6-11.6 M367,410.5l-14.4-9.2 M383.9,380.5l-15.8-6.6 M395.3,347.9l-16.7-3.7
		 M400.9,313.9l-17.1-0.7 M400.5,279.5l-17,2.2 M394.1,245.6l-16.3,5.2 M381.9,213.4l-15.2,7.9 M364.3,183.8l-13.6,10.4
		 M341.9,157.6l-11.6,12.6 M315.2,135.8l-9.2,14.4 M285.2,118.9l-6.5,15.8 M252.6,107.5l-3.7,16.7"/>
	<polygon class="st2" points="58.2,449.4 183.9,279.1 225.5,319.3 	"/>
	<polygon class="st3" points="350.9,148.5 225.2,318.8 183.6,278.7 	"/>
</g>
<g id="图层_1_1_" class="st4">
	<g class="st5">
		<g>
			<defs>
				<rect id="SVGID_2_" x="-48.6" y="-45" width="459.6" height="479"/>
			</defs>
			<clipPath id="SVGID_3_">
				<use xlink:href="#SVGID_2_"  style="overflow:visible;"/>
			</clipPath>
			<g transform="matrix(1 0 0 1 -7.603009e-008 3.469977e-006)" class="st6">
			</g>
		</g>
	</g>
</g>
</svg>
