<?xml version="1.0" encoding="utf-8"?>
<!-- Generator: Adobe Illustrator 19.0.1, SVG Export Plug-In . SVG Version: 6.00 Build 0)  -->
<svg version="1.1" id="图层_1" xmlns="http://www.w3.org/2000/svg" xmlns:xlink="http://www.w3.org/1999/xlink" x="0px" y="0px"
	 viewBox="-47 48.3 500 500" style="enable-background:new -47 48.3 500 500;" xml:space="preserve">
<style type="text/css">
	.st0{fill:#2C9DD9;}
	.st1{fill:#8CC223;}
	.st2{fill:#F3D130;}
	.st3{fill:#DD2929;}
	.st4{fill:#8B4A99;}
	.st5{fill:#813D93;}
	.st6{fill:#B62123;}
	.st7{fill:#E7AF25;}
	.st8{fill:#66AF30;}
	.st9{fill:#1B79BE;}
	.st10{opacity:0.17;fill:#3A1E0B;enable-background:new    ;}
	.st11{fill:#FFFFFF;}
	.st12{display:none;}
	.st13{display:inline;}
	.st14{clip-path:url(#SVGID_3_);}
</style>
<g>
	<g id="图层_2">
		<path class="st0" d="M164.9,311.7c0.1,1.7-167.3,23-186.9-52.7c-8.3-32,13-82.2,35-111.4c28.1-37.4,68.8-66.1,93-73.2
			c7.2-2.1-0.6,45.4,20.8,101.7c9.5,25.1,19.5,54.3,40,84C174.5,271.4,164.9,311.7,164.9,311.7z"/>
		<path class="st1" d="M211.1,326.5c1.6,0.4-30.1,168-107.4,163.4C71,488,30.4,452,9.7,421.9c-26.5-38.5-41-86.6-40.1-112
			c0.3-7.5,42.5,14.6,102.1,11.5c26.5-1.4,57.1-1.9,91.4-12.5C176.1,304.8,211.1,326.5,211.1,326.5z"/>
		<path class="st2" d="M240.9,285.1c0.9-1.4,148.7,80.8,120.6,153.7c-11.9,30.8-58.3,58.7-93.1,69.3c-44.5,13.6-94.1,12.6-117.8,4
			c-7-2.6,26.9-36.4,42.3-94.6c6.9-26,15.8-55.5,16.5-91.7C209.6,312,240.9,285.1,240.9,285.1z"/>
		<path class="st3" d="M211,245c-1.1-1.3,122-118,181.9-68.4c25.3,21,37.2,74.2,36.5,110.9c-0.9,46.9-17.2,94.4-32.7,114.5
			c-4.6,6-25.9-37.1-75.9-69.9c-22.3-14.6-47.3-32.4-81.2-44.2C226.6,283.4,211,245,211,245z"/>
		<path class="st4" d="M163.6,262.3c-1.6,0.6-73.3-153.7-8.1-196c27.6-17.9,81.3-12.8,115.6-0.8c43.9,15.4,83.5,45.7,97.6,66.8
			c4.2,6.3-42.9,13.5-89.2,51.4c-20.7,16.9-45.1,35.5-66.7,64.4C204.5,259.1,163.6,262.3,163.6,262.3z"/>
	</g>
	<g id="图层_3">
		<path class="st5" d="M132,101.5C159.7,206,245.1,213.1,241.8,216.8c-9.1,10.2-19.7,19.8-29.2,32.3c-8.3,10.9-49.3,14.1-49.3,14.1
			C162,263.7,113.3,161.3,132,101.5"/>
		<path class="st6" d="M356,166.6c-91.5,58.6-71.9,141.5-76.5,139.5c-12.6-5.5-25.1-12.5-39.9-17.6c-13-4.5-28.7-42.3-28.7-42.3
			C210.1,245.1,293,167.5,356,166.6"/>
		<path class="st7" d="M361.9,398.3c-84.3-68.4-157.6-24.2-157.1-29.2c1.3-13.6,4.2-27.5,4.5-43.2c0.3-13.7,31.6-40.2,31.6-40.2
			C241.6,284.6,341.6,339,361.9,398.3"/>
		<path class="st8" d="M140.6,475.9C180,375,115.1,319.4,120,318.3c13.4-2.9,27.6-4.5,42.7-9.1c13.2-4,48.2,17.5,48.2,17.5
			C212.2,327,191.1,438.3,140.6,475.9"/>
		<path class="st9" d="M0.3,292c108.6,6.1,141.8-72.5,144.3-68.2c6.9,11.7,12.9,24.7,21.9,37.6c7.9,11.2-1.8,51-1.8,51
			C164.8,313.7,51.8,328.1,0.3,292"/>
		<path class="st10" d="M198.9,338.4c28.2,0,51.1-22.8,51.1-50.8c0-28-23-50.8-51.1-50.8s-51.1,22.8-51.1,50.8
			C147.8,315.5,170.7,338.4,198.9,338.4z"/>
		<path class="st11" d="M198.8,328.1c22.9,0,41.6-18.6,41.6-41.4c0-22.8-18.7-41.4-41.6-41.4s-41.6,18.6-41.6,41.4
			C157.2,309.5,175.9,328.1,198.8,328.1z"/>
		<g id="图层_1_1_" class="st12">
			<g class="st13">
				<g>
					<rect id="SVGID_1_" x="-13.3" y="199.9" class="st2" width="573.9" height="533.8"/>
				</g>
				<g>
					<g>
						<defs>
							<rect id="SVGID_2_" x="-13.3" y="199.9" width="573.9" height="533.8"/>
						</defs>
						<clipPath id="SVGID_3_">
							<use xlink:href="#SVGID_2_"  style="overflow:visible;"/>
						</clipPath>
						<g transform="matrix(1 0 0 1 4.047870e-007 1.640925e-006)" class="st14">
						</g>
					</g>
				</g>
			</g>
		</g>
	</g>
</g>
</svg>
