<?xml version="1.0" encoding="utf-8"?>
<!-- Generator: Adobe Illustrator 19.0.1, SVG Export Plug-In . SVG Version: 6.00 Build 0)  -->
<svg version="1.1" id="图层_1" xmlns="http://www.w3.org/2000/svg" xmlns:xlink="http://www.w3.org/1999/xlink" x="0px" y="0px"
	 viewBox="-47 48.3 500 500" style="enable-background:new -47 48.3 500 500;" xml:space="preserve">
<style type="text/css">
	.st0{fill:url(#SVGID_1_);}
	.st1{fill:#FFFFFF;}
	.st2{display:none;fill:#FFFFFF;}
</style>
<linearGradient id="SVGID_1_" gradientUnits="userSpaceOnUse" x1="210.9818" y1="523.7856" x2="203.742" y2="109.0152" gradientTransform="matrix(1 0 0 -1 0 597.84)">
	<stop  offset="0" style="stop-color:#1580C4"/>
	<stop  offset="1" style="stop-color:#6BC8F2"/>
</linearGradient>
<ellipse class="st0" cx="207.3" cy="285.2" rx="208.5" ry="206.3"/>
<path class="st1" d="M204,67.2C78,67.2-24.2,167.6-24.2,291.3S78,515.4,204,515.4c126,0,228.1-100.4,228.1-224.1
	S329.9,67.2,204,67.2z M227.5,413.7c-20,60.6-133.7,61.5-186.6-23.9C-42.2,251.1,63.1,137,113.2,118c-36.1,28.5-42.7,58.2-43.8,84
	c-3.2,79.1,60.4,105.5,66.6,108.6C203.8,344.3,242.3,368.6,227.5,413.7z M281.8,458.7c45.2-27.4,92.5-142.2-12.8-199.9
	c-41.9-23-128.2-51.6-94.8-119.9c14-28.6,55.4-38.3,98.9-24.8c33.9,10.5,69.7,36.9,90.8,67.9C436.4,288.4,379.1,420.3,281.8,458.7z"
	/>
<path class="st2" d="M281.8,458.7c45.2-27.4,92.5-142.2-12.8-199.9c-41.9-23-128.2-51.6-94.8-119.9c14-28.6,55.4-38.3,98.9-24.8
	c33.9,10.5,69.7,36.9,90.8,67.9C436.4,288.4,379.1,420.3,281.8,458.7z"/>
</svg>
