<?xml version="1.0" encoding="utf-8"?>
<!-- Generator: Adobe Illustrator 15.0.0, SVG Export Plug-In . SVG Version: 6.00 Build 0)  -->
<!DOCTYPE svg PUBLIC "-//W3C//DTD SVG 1.1//EN" "http://www.w3.org/Graphics/SVG/1.1/DTD/svg11.dtd">
<svg version="1.1" id="图层_1" xmlns="http://www.w3.org/2000/svg" xmlns:xlink="http://www.w3.org/1999/xlink" x="0px" y="0px"
	 width="500px" height="500px" viewBox="0 0 500 500" enable-background="new 0 0 500 500" xml:space="preserve">
<g id="图层_x0020_1">
	
		<linearGradient id="SVGID_1_" gradientUnits="userSpaceOnUse" x1="149.6772" y1="-111.6372" x2="156.9306" y2="66.0627" gradientTransform="matrix(2.8346 0 0 2.8346 -184.5517 314.6163)">
		<stop  offset="0" style="stop-color:#EA8A2C"/>
		<stop  offset="1" style="stop-color:#EF292A"/>
	</linearGradient>
	<path fill="url(#SVGID_1_)" stroke="#F93E22" stroke-width="1.3797" stroke-linecap="round" stroke-linejoin="round" d="
		M76.868,2.669h346.264c40.81,0,74.199,33.39,74.199,74.199v346.263c0,40.811-33.391,74.199-74.199,74.199H76.868
		c-40.811,0-74.199-33.391-74.199-74.199V76.868C2.667,36.059,36.057,2.669,76.868,2.669z"/>
	<g id="_186706064">
		<path id="_186701600" fill="#FFFFFF" d="M212.153,304.32c28.776,0,52.252,23.477,52.252,52.254s-23.476,52.252-52.252,52.252
			c-28.778,0-52.254-23.475-52.254-52.252S183.375,304.32,212.153,304.32z M212.153,332.332c13.351,0,24.241,10.893,24.241,24.24
			c0,13.354-10.891,24.242-24.241,24.242s-24.242-10.891-24.242-24.242C187.912,343.223,198.803,332.332,212.153,332.332z"/>
		<path id="_186701312" fill="#FFFFFF" d="M348.933,134.426c6.651,3.497,17.047,28.729,15.674,34.356
			c36.708,10.963,63.601,45.076,63.601,85.266c0,2.66-0.126,5.291-0.356,7.893c-8.828,3.482-18.436,5.4-28.478,5.4
			c-18.448,0-35.438-6.465-48.813-17.248c-17.753-14.31-60.479-26.381-86.581-25.761c5.109-4.282,51.675-24.137,70.366-40.596
			C333.089,168.182,338.409,141.15,348.933,134.426L348.933,134.426z"/>
		<path id="_186701192" fill="#FFFFFF" d="M362.2,423.67c-23.59,2.459-98.092,4.369-133.737,5.385
			c33.119-7.467,57.985-37.16,57.985-72.479c0-40.92-33.375-74.293-74.291-74.293c-22.052,0-41.908,9.697-55.534,25.037
			c16.346-34.598,45.229-43.023,71.075-42.512c55.634,1.102,108.759,55.295,84.626,133.154
			C330.901,396.527,349.99,406.34,362.2,423.67L362.2,423.67z"/>
		<path id="_186705632" fill="#FFFFFF" d="M403.079,287.434c13.773,0,25.092,10.861,25.822,24.461
			c-5.958-2.785-12.596-4.346-19.588-4.346c-11.333,0-21.736,4.092-29.814,10.873l-1.324,1.314
			c-6.062,1.641-12.426,2.52-18.992,2.52c-8.865,0-17.37-1.598-25.242-4.514c-18.039-41.074-59.125-69.889-106.729-69.889
			c-4.549,0-9.036,0.271-13.452,0.783c14.808-6.057,30.991-9.404,47.935-9.404c33.921,0,64.813,13.391,87.663,35.153
			c16.229,8.844,32.074,14.65,47.287,13.859C398.703,287.717,400.859,287.434,403.079,287.434L403.079,287.434z"/>
		<path id="_186705752" fill="#FFFFFF" d="M187.891,251.084c-33.577,16.205-58.501,48.623-58.501,88.146
			c0,26.699,11.036,50.9,28.775,68.285c5.872,6.215,12.801,11.424,20.495,15.334c2.545,1.422,5.161,2.729,7.842,3.916
			c-2.135,0.127-4.284,0.199-6.449,0.199c-60.01,0-108.955-48.947-108.955-108.955c0-23.816,10.411-44.592,20.762-63.848
			c14.804-27.543,54.379-50.568,55.456-88.801c0-22.623-19.365-42.129-42.984-39.535c-13.143,1.442-23.375,7.146-31.873,12.931
			c15.043-32.708,60.328-71.185,108.973-67.595c45.01,0,81.72,36.711,81.72,81.72c0,15.647-5.6,29.646-12.117,42.737
			C240.758,216.261,221.146,235.037,187.891,251.084L187.891,251.084z"/>
	</g>
</g>
</svg>
