<?xml version="1.0" encoding="utf-8"?>
<!-- Generator: Adobe Illustrator 16.0.0, SVG Export Plug-In . SVG Version: 6.00 Build 0)  -->
<!DOCTYPE svg PUBLIC "-//W3C//DTD SVG 1.1//EN" "http://www.w3.org/Graphics/SVG/1.1/DTD/svg11.dtd">
<svg version="1.1" id="图层_6" xmlns="http://www.w3.org/2000/svg" xmlns:xlink="http://www.w3.org/1999/xlink" x="0px" y="0px"
	 width="263.986px" height="278.984px" viewBox="0 0 263.986 278.984" enable-background="new 0 0 263.986 278.984"
	 xml:space="preserve">
<path fill="#FFFFFF" d="M177.828,77.394c-5.311-12.327-15.526-23.284-27.98-28.494c-6.839-2.861-15.673-5.145-23.129-5.145
	c-12.988,0-25.462,4.36-35.163,12.966C82.178,65.043,73.59,75.92,72.252,88.771c-1.95,18.73,4.738,36.71,12.356,53.466
	c8.01,17.628,43.07,93.244,42.815,93.856c0,0,34.305-78.458,38.499-87.948c3.483-7.883,6.54-15.947,9.406-24.075
	C180.6,109.122,184.348,92.529,177.828,77.394z M126.6,129.768c-16.564,0-29.994-13.899-29.994-31.042
	c0-17.148,13.429-31.042,29.994-31.042c16.569,0,29.999,13.895,29.999,31.042C156.599,115.869,143.17,129.768,126.6,129.768z"/>
</svg>
