<?xml version="1.0" encoding="utf-8"?>
<!-- Generator: Adobe Illustrator 18.1.1, SVG Export Plug-In . SVG Version: 6.00 Build 0)  -->
<svg version="1.1" id="图层_1" xmlns="http://www.w3.org/2000/svg" xmlns:xlink="http://www.w3.org/1999/xlink" x="0px" y="0px"
	 viewBox="0 0 510.2 510.2" enable-background="new 0 0 510.2 510.2" xml:space="preserve">
<g>
	<path fill="#FFFFFF" d="M365.7,376.8L365.7,376.8c-1.4-0.9-3-1.6-4.5-2.3c-0.9-0.5-1.8-0.9-2.8-1.4c-3.1-1.5-6.3-2.9-9.6-4.2
		c-0.6-0.3-1.2-0.5-1.9-0.8c-11.2-4.4-23.4-8-36.4-10.6c-1.7-5.7-2.9-11.9-3.6-18.6c13.3-1.3,53.1-11.6,49.1-16.7
		c-12.9-16.1-7.5-42.5-5.2-60c4.9-38,11.4-55.5-3.5-98.2c-11.2-32.2-45.8-62.6-87.9-59.7c-16.7,1.1-28.7,5.8-45.6,17.4
		c-35.7,4.3-60.4,36.5-57.6,92.8c1.6,32.3,26.6,68.3,3.8,106.4c-3.9,6.5,36,25.9,58.3,22.8c-0.3,4.1-0.8,8.3-1.6,12.3
		c-15.6,2.6-30.1,6.8-43.3,11.9c-0.6,0.3-1.2,0.5-1.8,0.8c-3.3,1.3-6.5,2.8-9.7,4.2c-1,0.5-1.8,0.9-2.7,1.3
		c-1.5,0.8-3.1,1.4-4.5,2.2l0,0.1c-31,16.7-50.5,40.7-50.5,67.4h312.2C416.2,417.6,396.7,393.6,365.7,376.8L365.7,376.8z M265.3,120
		c30.2,4,53.9,27.7,62.5,58.3c-12.8-22.4-35.2-38.8-62.2-42.4c-33.3-4.4-64.3,11.7-81.1,38.7C197.2,138.7,230,115.3,265.3,120
		L265.3,120z M214.3,306.3c-0.6-0.7-1.2-1.4-1.7-2.1c-7.9-10.2-14.9-21.9-19.4-34c-1.4-12.5-1.6-25.2,0-37.7
		c2.7-21.2,11-42,29.1-60.6c2.7,6.5,87.5,37.7,101.2,59.8c0.1,0.3,0.2,0.6,0.4,0.8c-1.4,25.1-15.9,46.5-36.7,57.3
		c-2.6-3.9-7.9-6.6-14.1-6.6c-8.7,0.1-15.7,5.5-15.7,12.2c0,6.7,7.1,12.1,15.8,12c8.7-0.1,15.7-5.5,15.7-12.2c0-0.8-0.1-1.5-0.3-2.3
		c19.9-10.1,33.9-28.7,38.1-53.3c0,0.1,0.1,0.3,0.2,0.4c1.4,5.6,1.9,12.5,1.8,19.8c-3.6,14.6-11,30-21.7,44.5
		c-0.5,0.7-1,1.4-1.6,2.1c-0.3,0.4-0.6,0.8-0.9,1.2c-0.3,0.3-0.5,0.6-0.7,0.9c-12.9,16.2-27.4,27.6-38.2,30.3
		c-1.9,0.5-3.6,0.7-5.3,0.6c-0.7,0-1.5-0.1-2.3-0.3c-10.4-1.9-25.2-12.2-38.5-26.9C217.6,310.4,215.9,308.4,214.3,306.3L214.3,306.3
		z M319.6,376.9c-0.7,0.8-1.5,1.6-2.2,2.4c-16,17.3-35.8,36.3-57.4,36.3c-20.4,0-39.2-17-54.7-33.4c-0.7-0.8-1.4-1.5-2.1-2.3
		c-4.5-4.8-8.7-9.6-12.5-13.7c7.8-2.1,16-3.8,24.6-5.2c1.1-0.2,2.2-0.3,3.4-0.5c0.1-0.5,0.3-0.9,0.4-1.4c0.1-0.5,0.2-1.1,0.4-1.6
		c0.1-0.5,0.2-1,0.3-1.6c0,0,0,0,0,0c1-5,1.5-10.1,1.7-15.1c0.3-8.6-0.4-16.9-1.3-23.3c9.9,10.3,20.3,18.1,29.2,22.2
		c4,1.8,7.6,2.9,10.8,3.1c0.3,0,0.7,0,1,0c4.1,0,8.7-1.5,13.8-4.1c9.1-4.8,19.2-13.6,28.5-24.6c-0.5,8.2,0.1,23.4,0,23.5
		c-0.2,0.3,2.1,14,3.7,19.5v0.1c0.2,0.6,0.4,1.1,0.5,1.6c0.2,0.6,0.3,1.1,0.5,1.6c0.2,0.4,0.3,0.9,0.4,1.3c1.2,0.2,2.4,0.4,3.5,0.6
		c6,1.1,11.8,2.4,17.4,4C326.4,369.4,323.1,373.1,319.6,376.9L319.6,376.9z M319.6,376.9"/>
</g>
</svg>
